<?xml version="1.0" encoding="utf-8"?>
<!-- Generator: Adobe Illustrator 24.0.0, SVG Export Plug-In . SVG Version: 6.00 Build 0)  -->
<svg version="1.1" id="Layer_1" xmlns="http://www.w3.org/2000/svg" xmlns:xlink="http://www.w3.org/1999/xlink" x="0px" y="0px"
	 viewBox="0 0 2386.6 650.7" style="enable-background:new 0 0 2386.6 650.7;" xml:space="preserve">
<style type="text/css">
	.st0{fill:#040504;}
</style>
<title>Home-Next-Stop-3</title>
<g>
	<path class="st0" d="M2041.2,350.1c-10.2-4.8-25.1-11.7-41.6-13.7c-7.6-0.9-19.7,3-22.9-0.6c-9.5-10.8-18.8-11.7-27.3-14.2
		c-11.1-3.3-23.8-3.3-47.2-12.5c-12.4-4.8-17.1-14.8-22.7-18c-7.6-4.3-5.8,1.4-12.5-3.2c-17-11.6-22.2-33.2-27.9-44.2
		c-6.7-13-16.2-7.8-22.4-12.8c-14.2-11.4-12.6-8.1-23.5-21.2c-4.4-5.2-7.8,9.2-14.2-0.9c-5.8-8.9-6-37.3-11.6-43.4
		c-5.4-5.9-9.4,0.1-14.8-5.6c-14.4-15.1-15.9-10-22.7-14.6c-3.1-2.1-2.9-5-6.2-6.7c-5-2.7-11.7,9.2-11.3-8.3
		c0.1-5.4-15.6-5.1-19.1-5c-4.6,0.2-6.8,5.8-11.3,4.8c-3-0.7,3.2,16.5,0,15.9c-2.4-0.5-3-18.2-10.1-17.5c-2.6,0.3-5.1-6.4-7.8-6.7
		c-8.7-1-20,1.4-32.2,0.2c-8.3-0.8-16.1,5.9-17.3,4.9c-9.4-7.4-24.8-6.1-34.9-5.1c-14.8,1.6-4.9,2.1-17.9,5
		c-2.5,0.5-8.1,11-15.9,11.3c-12.7,0.5-15.5-8.3-22-8.5s-18.6,14.3-24.9,14.5c-6.2,0.2,0.8-9.5-5-10.2c-8-0.9-9.6-14.1-17.8-12.5
		c-10.7,2.1-21.7,2-31.7-2.2c-22.4-9.6-10.1,1.8-18.8,1.2c-11.5-0.8-34.9-8.3-49.6-11.3c-10.4-2.1-12.5,0.5-20.3-1.4
		c-14.4-3.4-27.1-10.2-45.1-14.9c-7.7-2-7.5,2.8-15.8,0.9c-11.1-2.6-13.6-7.4-26.6-11.7c-16.6-5.5-43.7-10.7-55.9-15.3
		c-10.3-4-21.1,11.2-29.3,3.2c-18.9-18.5-23.9-6.7-30.7-12.6c-4.1-3.6-3.2-9-8.6-10.4c-15-3.7-41.7-0.2-57.3-1.8
		c-11-1.1-11.1-6.5-21.7-8.1c-38.1-6-68.1-2-101.5-5.4c-56.7-5.7-109.9-16.7-130.8-18c-7.4-0.5-3,6.9-4.5,7.2
		c-22,5.3-72.1,4-94.7,6.3c-6.7,0.7-1.4,4.4-8.1,5.2c-9.3,1.2-16,0.7-19.9-2.6c-3.3-2.8-17.1,2.8-25.6,4.4c-0.7,2.9-0.9,18-4.3,26.3
		c-1,2.5-10.7,2.8-11.7,5.3c-2.9,6.9,0,8.3-1.8,12.5c-1.5,3.4-8.6,2.2-9.6,10.3c-4.7,36.6-3.8,71.7-13.1,94.2
		c-2.4,5.7-14.5,10.8-14.8,9.4c-3.9-15.3-20.4-0.9-26.4-2.6l-2.9-18.6l-19.4,6.2c-13.5,7-8.2,20.8-15.5,34.1s-45.3,36.1-60.5,37.2
		c-7-41.1-110.8,21-156,51.2c-39.1,26.2-94.6,37.9-114.1,45.8c-28.7,11.6-66,27.2-80.7,29.5c-29.1,4.6-122.4,11.8-147.4,29.1L0,0
		v650.7h2386.6l-1.4-198.9c-11.2-6.1-282-67.7-310.5-77.6C2061.6,369.7,2051.7,355,2041.2,350.1z"/>
	<polygon class="st0" points="2385.1,0 2385.1,451.8 2386.6,0 	"/>
</g>
</svg>
