<svg class="kukenan" data-name="Layer 1" xmlns="http://www.w3.org/2000/svg" viewBox="0 0 2400 450"  >
<defs>
  <style>
.kukenan {

  max-width: 100vw;
}
.cls-1{
  fill:#040504;
}
  </style>
</defs>
<title>Home-Next-Stop-3</title>
<path class="cls-1" d="M2041.17,350.07c-10.21-4.75-25.1-11.67-41.57-13.67-7.6-.94-19.72,3-22.92-.63-9.5-10.81-18.81-11.67-27.26-14.2-11.07-3.33-23.78-3.29-47.21-12.5-12.38-4.84-17-14.81-22.68-18-7.63-4.32-5.81,1.37-12.5-3.2-17-11.62-22.25-33.19-27.91-44.19-6.69-13-16.2-7.79-22.39-12.79-14.18-11.4-12.6-8.09-23.54-21.22-4.36-5.24-7.77,9.21-14.25-.88-5.75-8.93-6-37.3-11.57-43.42-5.4-5.89-9.4.12-14.82-5.58-14.38-15.12-16-10-22.7-14.59-3.1-2.1-2.95-4.95-6.19-6.73-5-2.72-11.68,9.21-11.33-8.31.11-5.42-15.58-5.13-19.11-5-4.6.18-6.81,5.84-11.33,4.78-3-.71,3.23,16.53,0,15.93-2.43-.46-3-18.23-10.08-17.52-2.59.27-5.13-6.41-7.79-6.73-8.73-1-20,1.43-32.2.19-8.29-.84-16.12,5.94-17.35,4.94-9.44-7.44-24.8-6.13-34.87-5.13-14.76,1.56-4.87,2.06-17.87,5-2.46.55-8.14,11-15.93,11.32-12.67.51-15.49-8.32-22-8.49s-18.56,14.27-25,14.51c-6.17.23.8-9.53-5-10.16-8-.88-9.59-14.11-17.84-12.48-10.69,2.1-21.69,2-31.69-2.23-22.43-9.55-10.15,1.77-18.82,1.21-11.46-.75-34.89-8.28-49.62-11.28-10.38-2.11-12.47.47-20.3-1.35-14.39-3.36-27.11-10.24-45.11-14.89-7.65-2-7.51,2.83-15.78.9-11.13-2.59-13.61-7.44-26.61-11.72-16.64-5.49-43.71-10.65-55.94-15.34-10.32-4-21.15,11.16-29.32,3.16-18.94-18.5-23.86-6.71-30.67-12.63-4.08-3.56-3.16-9-8.57-10.38-15-3.72-41.71-.24-57.28-1.8-11-1.12-11-6.46-21.65-8.12-38.07-6-68.05-2-101.49-5.41-56.73-5.69-109.87-16.69-130.81-18-7.39-.46-3,6.86-4.51,7.22-22,5.32-72.14,4-94.72,6.32-6.73.69-1.39,4.38-8.12,5.21-9.29,1.16-16,.71-19.91-2.61C701.83,26.83,688,32.37,679.48,34c-.74,2.86-.85,18-4.27,26.34-1,2.55-10.67,2.76-11.74,5.34-2.86,6.85,0,8.29-1.78,12.45-1.49,3.42-8.61,2.19-9.61,10.32-4.65,36.63-3.81,71.67-13.06,94.21-2.35,5.71-14.48,10.84-14.83,9.45-3.88-15.27-20.43-.86-26.43-2.58l-2.9-18.58-19.4,6.21c-13.53,7-8.18,20.78-15.53,34.15s-45.31,36.13-60.54,37.25c-7-41.13-110.78,21-156,51.23-39.1,26.16-94.6,37.9-114.1,45.8-28.72,11.65-66,27.18-80.72,29.49C119.46,379.61,26.16,386.9,1.16,404.13L0,0V451.8H2385.11c-11.25-6.06-282-67.72-310.5-77.6C2061.61,369.69,2051.74,355,2041.17,350.07Z" transform="translate(0 0)"/><polygon class="cls-1" points="2385.11 0 2385.11 451.8 2386.55 0 2385.11 0"/></svg>