<svg id="Layer_1" data-name="Layer 1" xmlns="http://www.w3.org/2000/svg" viewBox="0 0 64.91 44.63" width="60" ><defs><style>.cls-1{fill:#434343;stroke:#434343;stroke-miterlimit:10;stroke-width:0.25px;}</style></defs><title>logo-nsv</title><path class="cls-1" d="M16.27,19.34,5.94,5.52V19.34H4V2.12H6L16.34,16V2.12h1.95V19.34Z" transform="translate(-2 -2)"/><path class="cls-1" d="M25.5,4V9.67h8.68v1.9H25.5v5.9h10v1.87h-12V2.12H35.22V4Z" transform="translate(-2 -2)"/><path class="cls-1" d="M52.59,19.34H50.23L45,12.13,39.8,19.34H37.49l6.32-8.86L37.93,2.12h2.31L45,8.76l4.8-6.64H52.1l-5.85,8.27Z" transform="translate(-2 -2)"/><path class="cls-1" d="M61.16,4V19.34h-2V4H53.58V2.12H66.79V4Z" transform="translate(-2 -2)"/><path class="cls-1" d="M14.55,30.72l-.84,1.84A8.92,8.92,0,0,0,9,31.11c-2.21,0-3.66.83-3.66,2.29,0,4.42,9.69,2.11,9.67,8.36,0,2.87-2.54,4.72-6.23,4.72a9.83,9.83,0,0,1-6.59-2.63L3,42.08a8.54,8.54,0,0,0,5.73,2.43c2.48,0,4-1,4-2.65,0-4.53-9.66-2.12-9.66-8.29,0-2.71,2.38-4.45,5.95-4.45A10.19,10.19,0,0,1,14.55,30.72Z" transform="translate(-2 -2)"/><path class="cls-1" d="M24.25,31.08V46.41h-2V31.08H16.67V29.19H29.88v1.89Z" transform="translate(-2 -2)"/><path class="cls-1" d="M48,37.8a8.81,8.81,0,0,1-9,8.7,8.69,8.69,0,1,1,0-17.36A8.77,8.77,0,0,1,48,37.8Zm-16,0A7,7,0,1,0,39,31,6.94,6.94,0,0,0,32,37.8Z" transform="translate(-2 -2)"/><path class="cls-1" d="M58.11,29.19c4.25,0,6.71,2.11,6.71,5.78s-2.46,6-6.71,6h-4.5v5.44h-2V29.19Zm-4.5,9.89H58c3.1,0,4.9-1.38,4.9-4.06s-1.8-3.94-4.9-3.94H53.61Z" transform="translate(-2 -2)"/></svg>